REM DIRINDEX 1\2,1\4,1\5,1\6,1\7,1\3\8,1\3\9,1\3\10
REM DIRNAME cjc113,folder01,folder02,folder03,folder04,folder05,folder06,folder07,folder08,folder09
TITLE ""
FILE "DB4500_5th_6C_48.mp3" MP3
  TRACK 01 AUDIO
    TITLE "8:cjc113_5221"
    INDEX 01 00:00:00
  TRACK 02 AUDIO
    TITLE "0:"
    INDEX 01 00:01:09
  TRACK 03 AUDIO
    TITLE "9:cjc113_5222"
    INDEX 01 00:01:21
  TRACK 04 AUDIO
    TITLE "0:"
    INDEX 01 00:02:42
  TRACK 05 AUDIO
    TITLE "10:cjc113_5223"
    INDEX 01 00:02:49
  TRACK 06 AUDIO
    TITLE "0:"
    INDEX 01 00:05:36
  TRACK 07 AUDIO
    TITLE "10:cjc113_5224"
    INDEX 01 00:05:63
  TRACK 08 AUDIO
    TITLE "0:"
    INDEX 01 00:08:64
  TRACK 09 AUDIO
    TITLE "8:cjc113_5225"
    INDEX 01 00:09:22
  TRACK 10 AUDIO
    TITLE "0:"
    INDEX 01 00:10:37
  TRACK 11 AUDIO
    TITLE "9:cjc113_5226"
    INDEX 01 00:10:47
  TRACK 12 AUDIO
    TITLE "0:"
    INDEX 01 00:11:60
  TRACK 13 AUDIO
    TITLE "10:cjc113_5227"
    INDEX 01 00:11:74
  TRACK 14 AUDIO
    TITLE "0:"
    INDEX 01 00:15:38
  TRACK 15 AUDIO
    TITLE "8:cjc113_5228"
    INDEX 01 00:15:70
  TRACK 16 AUDIO
    TITLE "0:"
    INDEX 01 00:17:10
  TRACK 17 AUDIO
    TITLE "9:cjc113_5229"
    INDEX 01 00:17:18
  TRACK 18 AUDIO
    TITLE "0:"
    INDEX 01 00:18:37
  TRACK 19 AUDIO
    TITLE "10:cjc113_5230"
    INDEX 01 00:18:42
  TRACK 20 AUDIO
    TITLE "0:"
    INDEX 01 00:21:39
  TRACK 21 AUDIO
    TITLE "8:cjc113_5231"
    INDEX 01 00:22:11
  TRACK 22 AUDIO
    TITLE "0:"
    INDEX 01 00:23:42
  TRACK 23 AUDIO
    TITLE "9:cjc113_5232"
    INDEX 01 00:23:53
  TRACK 24 AUDIO
    TITLE "0:"
    INDEX 01 00:24:63
  TRACK 25 AUDIO
    TITLE "10:cjc113_5233"
    INDEX 01 00:24:72
  TRACK 26 AUDIO
    TITLE "0:"
    INDEX 01 00:28:06
  TRACK 27 AUDIO
    TITLE "8:cjc113_5234"
    INDEX 01 00:28:37
  TRACK 28 AUDIO
    TITLE "0:"
    INDEX 01 00:29:52
  TRACK 29 AUDIO
    TITLE "9:cjc113_5235"
    INDEX 01 00:29:62
  TRACK 30 AUDIO
    TITLE "0:"
    INDEX 01 00:31:04
  TRACK 31 AUDIO
    TITLE "10:cjc113_5236"
    INDEX 01 00:31:12
  TRACK 32 AUDIO
    TITLE "0:"
    INDEX 01 00:34:12
  TRACK 33 AUDIO
    TITLE "8:cjc113_5237"
    INDEX 01 00:34:45
  TRACK 34 AUDIO
    TITLE "0:"
    INDEX 01 00:37:54
  TRACK 35 AUDIO
    TITLE "9:cjc113_5238"
    INDEX 01 00:37:63
  TRACK 36 AUDIO
    TITLE "0:"
    INDEX 01 00:39:33
  TRACK 37 AUDIO
    TITLE "10:cjc113_5239"
    INDEX 01 00:39:52
  TRACK 38 AUDIO
    TITLE "0:"
    INDEX 01 00:44:01
  TRACK 39 AUDIO
    TITLE "8:cjc113_5240"
    INDEX 01 00:44:32
  TRACK 40 AUDIO
    TITLE "0:"
    INDEX 01 00:45:55
  TRACK 41 AUDIO
    TITLE "9:cjc113_5241"
    INDEX 01 00:45:61
  TRACK 42 AUDIO
    TITLE "0:"
    INDEX 01 00:47:19
  TRACK 43 AUDIO
    TITLE "10:cjc113_5242"
    INDEX 01 00:47:27
  TRACK 44 AUDIO
    TITLE "0:"
    INDEX 01 00:50:39
  TRACK 45 AUDIO
    TITLE "8:cjc113_5243"
    INDEX 01 00:50:68
  TRACK 46 AUDIO
    TITLE "0:"
    INDEX 01 00:52:16
  TRACK 47 AUDIO
    TITLE "9:cjc113_5244"
    INDEX 01 00:52:26
  TRACK 48 AUDIO
    TITLE "0:"
    INDEX 01 00:53:43
  TRACK 49 AUDIO
    TITLE "10:cjc113_5245"
    INDEX 01 00:53:53
  TRACK 50 AUDIO
    TITLE "0:"
    INDEX 01 00:57:64
  TRACK 51 AUDIO
    TITLE "8:cjc113_5246"
    INDEX 01 00:58:22
  TRACK 52 AUDIO
    TITLE "0:"
    INDEX 01 00:59:34
  TRACK 53 AUDIO
    TITLE "9:cjc113_5247"
    INDEX 01 00:59:39
  TRACK 54 AUDIO
    TITLE "0:"
    INDEX 01 01:01:13
  TRACK 55 AUDIO
    TITLE "10:cjc113_5248"
    INDEX 01 01:01:19
  TRACK 56 AUDIO
    TITLE "0:"
    INDEX 01 01:04:37
  TRACK 57 AUDIO
    TITLE "8:cjc113_5249"
    INDEX 01 01:04:70
  TRACK 58 AUDIO
    TITLE "0:"
    INDEX 01 01:06:10
  TRACK 59 AUDIO
    TITLE "9:cjc113_5250"
    INDEX 01 01:06:18
  TRACK 60 AUDIO
    TITLE "0:"
    INDEX 01 01:07:68
  TRACK 61 AUDIO
    TITLE "10:cjc113_5251"
    INDEX 01 01:08:01
  TRACK 62 AUDIO
    TITLE "0:"
    INDEX 01 01:12:19
  TRACK 63 AUDIO
    TITLE "8:cjc113_5252"
    INDEX 01 01:12:48
  TRACK 64 AUDIO
    TITLE "0:"
    INDEX 01 01:13:69
  TRACK 65 AUDIO
    TITLE "9:cjc113_5253"
    INDEX 01 01:14:04
  TRACK 66 AUDIO
    TITLE "0:"
    INDEX 01 01:15:39
  TRACK 67 AUDIO
    TITLE "10:cjc113_5254"
    INDEX 01 01:15:44
  TRACK 68 AUDIO
    TITLE "0:"
    INDEX 01 01:19:13
  TRACK 69 AUDIO
    TITLE "8:cjc113_5255"
    INDEX 01 01:19:62
  TRACK 70 AUDIO
    TITLE "0:"
    INDEX 01 01:21:00
  TRACK 71 AUDIO
    TITLE "9:cjc113_5256"
    INDEX 01 01:21:06
  TRACK 72 AUDIO
    TITLE "0:"
    INDEX 01 01:22:23
  TRACK 73 AUDIO
    TITLE "10:cjc113_5257"
    INDEX 01 01:22:33
  TRACK 74 AUDIO
    TITLE "0:"
    INDEX 01 01:25:45
